<svg id="visual" viewBox="0 0 960 300" width="960" height="300" xmlns="http://www.w3.org/2000/svg" xmlns:xlink="http://www.w3.org/1999/xlink" version="1.1"><rect x="0" y="0" width="960" height="300" fill="#2C3539"></rect><path d="M0 160L12.3 159.8C24.7 159.7 49.3 159.3 74 151C98.7 142.7 123.3 126.3 148 125.5C172.7 124.7 197.3 139.3 221.8 142C246.3 144.7 270.7 135.3 295.2 136C319.7 136.7 344.3 147.3 369 145.3C393.7 143.3 418.3 128.7 443 129.5C467.7 130.3 492.3 146.7 517 144C541.7 141.3 566.3 119.7 591 109.3C615.7 99 640.3 100 664.8 106.5C689.3 113 713.7 125 738.2 130.7C762.7 136.3 787.3 135.7 812 129.5C836.7 123.3 861.3 111.7 886 106C910.7 100.3 935.3 100.7 947.7 100.8L960 101L960 0L947.7 0C935.3 0 910.7 0 886 0C861.3 0 836.7 0 812 0C787.3 0 762.7 0 738.2 0C713.7 0 689.3 0 664.8 0C640.3 0 615.7 0 591 0C566.3 0 541.7 0 517 0C492.3 0 467.7 0 443 0C418.3 0 393.7 0 369 0C344.3 0 319.7 0 295.2 0C270.7 0 246.3 0 221.8 0C197.3 0 172.7 0 148 0C123.3 0 98.7 0 74 0C49.3 0 24.7 0 12.3 0L0 0Z" fill="#778899"></path><path d="M0 113L12.3 108.2C24.7 103.3 49.3 93.7 74 93.2C98.7 92.7 123.3 101.3 148 106C172.7 110.7 197.3 111.3 221.8 108.8C246.3 106.3 270.7 100.7 295.2 92.5C319.7 84.3 344.3 73.7 369 74.8C393.7 76 418.3 89 443 94.5C467.7 100 492.3 98 517 96C541.7 94 566.3 92 591 86.8C615.7 81.7 640.3 73.3 664.8 76.8C689.3 80.3 713.7 95.7 738.2 102C762.7 108.3 787.3 105.7 812 100C836.7 94.3 861.3 85.7 886 79.5C910.7 73.3 935.3 69.7 947.7 67.8L960 66L960 0L947.7 0C935.3 0 910.7 0 886 0C861.3 0 836.7 0 812 0C787.3 0 762.7 0 738.2 0C713.7 0 689.3 0 664.8 0C640.3 0 615.7 0 591 0C566.3 0 541.7 0 517 0C492.3 0 467.7 0 443 0C418.3 0 393.7 0 369 0C344.3 0 319.7 0 295.2 0C270.7 0 246.3 0 221.8 0C197.3 0 172.7 0 148 0C123.3 0 98.7 0 74 0C49.3 0 24.7 0 12.3 0L0 0Z" fill="#a1b2ab"></path><path d="M0 35L12.3 33.2C24.7 31.3 49.3 27.7 74 27.2C98.7 26.7 123.3 29.3 148 31.3C172.7 33.3 197.3 34.7 221.8 38.7C246.3 42.7 270.7 49.3 295.2 46C319.7 42.7 344.3 29.3 369 22.8C393.7 16.3 418.3 16.7 443 26C467.7 35.3 492.3 53.7 517 57.5C541.7 61.3 566.3 50.7 591 49.2C615.7 47.7 640.3 55.3 664.8 53.2C689.3 51 713.7 39 738.2 31.3C762.7 23.7 787.3 20.3 812 21.2C836.7 22 861.3 27 886 34C910.7 41 935.3 50 947.7 54.5L960 59L960 0L947.7 0C935.3 0 910.7 0 886 0C861.3 0 836.7 0 812 0C787.3 0 762.7 0 738.2 0C713.7 0 689.3 0 664.8 0C640.3 0 615.7 0 591 0C566.3 0 541.7 0 517 0C492.3 0 467.7 0 443 0C418.3 0 393.7 0 369 0C344.3 0 319.7 0 295.2 0C270.7 0 246.3 0 221.8 0C197.3 0 172.7 0 148 0C123.3 0 98.7 0 74 0C49.3 0 24.7 0 12.3 0L0 0Z" fill="#dbd7d2"></path></svg>