<svg id="visual" viewBox="0 0 960 300" width="960" height="300" xmlns="http://www.w3.org/2000/svg" xmlns:xlink="http://www.w3.org/1999/xlink" version="1.1" stroke="transparent"><rect x="0" y="0" width="960" height="300" fill="#2C3539"></rect><path d="M0 80L22.8 86.8C45.7 93.7 91.3 107.3 137 109.2C182.7 111 228.3 101 274 93.8C319.7 86.7 365.3 82.3 411.2 86.7C457 91 503 104 548.8 111.5C594.7 119 640.3 121 686 116C731.7 111 777.3 99 823 98.7C868.7 98.3 914.3 109.7 937.2 115.3L960 121L960 0L937.2 0C914.3 0 868.7 0 823 0C777.3 0 731.7 0 686 0C640.3 0 594.7 0 548.8 0C503 0 457 0 411.2 0C365.3 0 319.7 0 274 0C228.3 0 182.7 0 137 0C91.3 0 45.7 0 22.8 0L0 0Z" fill="#778899"></path><path d="M0 85L22.8 82C45.7 79 91.3 73 137 70.5C182.7 68 228.3 69 274 72.3C319.7 75.7 365.3 81.3 411.2 80.7C457 80 503 73 548.8 74C594.7 75 640.3 84 686 85.7C731.7 87.3 777.3 81.7 823 79.8C868.7 78 914.3 80 937.2 81L960 82L960 0L937.2 0C914.3 0 868.7 0 823 0C777.3 0 731.7 0 686 0C640.3 0 594.7 0 548.8 0C503 0 457 0 411.2 0C365.3 0 319.7 0 274 0C228.3 0 182.7 0 137 0C91.3 0 45.7 0 22.8 0L0 0Z" fill="#859ea3"></path><path d="M0 72L22.8 68.5C45.7 65 91.3 58 137 56C182.7 54 228.3 57 274 60.7C319.7 64.3 365.3 68.7 411.2 66.7C457 64.7 503 56.3 548.8 56.2C594.7 56 640.3 64 686 66.3C731.7 68.7 777.3 65.3 823 65.5C868.7 65.7 914.3 69.3 937.2 71.2L960 73L960 0L937.2 0C914.3 0 868.7 0 823 0C777.3 0 731.7 0 686 0C640.3 0 594.7 0 548.8 0C503 0 457 0 411.2 0C365.3 0 319.7 0 274 0C228.3 0 182.7 0 137 0C91.3 0 45.7 0 22.8 0L0 0Z" fill="#a1b2ab"></path><path d="M0 51L22.8 49.5C45.7 48 91.3 45 137 41.3C182.7 37.7 228.3 33.3 274 34.5C319.7 35.7 365.3 42.3 411.2 46C457 49.7 503 50.3 548.8 51C594.7 51.7 640.3 52.3 686 52C731.7 51.7 777.3 50.3 823 51C868.7 51.7 914.3 54.3 937.2 55.7L960 57L960 0L937.2 0C914.3 0 868.7 0 823 0C777.3 0 731.7 0 686 0C640.3 0 594.7 0 548.8 0C503 0 457 0 411.2 0C365.3 0 319.7 0 274 0C228.3 0 182.7 0 137 0C91.3 0 45.7 0 22.8 0L0 0Z" fill="#c0c4bb"></path><path d="M0 24L22.8 22.8C45.7 21.7 91.3 19.3 137 19.2C182.7 19 228.3 21 274 23.2C319.7 25.3 365.3 27.7 411.2 27.2C457 26.7 503 23.3 548.8 23.7C594.7 24 640.3 28 686 30.7C731.7 33.3 777.3 34.7 823 34.8C868.7 35 914.3 34 937.2 33.5L960 33L960 0L937.2 0C914.3 0 868.7 0 823 0C777.3 0 731.7 0 686 0C640.3 0 594.7 0 548.8 0C503 0 457 0 411.2 0C365.3 0 319.7 0 274 0C228.3 0 182.7 0 137 0C91.3 0 45.7 0 22.8 0L0 0Z" fill="#dbd7d2"></path></svg>